<svg height="511pt" viewBox="0 0 511 511.99972" width="511pt" xmlns="http://www.w3.org/2000/svg"><path d="m508.152344 209.007812c-1.730469-9.320312-9.765625-16.144531-19.242188-16.34375-9.507812-.191406-17.789062 6.28125-19.910156 15.519532-13.667969 59.566406-67.175781 106.457031-133.832031 106.457031-75.714844 0-137.308594-61.59375-137.308594-137.308594 0-66.621093 46.867187-120.160156 106.457031-133.832031 9.238282-2.121094 15.71875-10.433594 15.519532-19.910156-.199219-9.476563-7.023438-17.511719-16.34375-19.242188-80.378907-14.921875-165.867188 8.546875-227.96875 70.648438-100.027344 100.027344-100.039063 261.9375 0 361.980468 100.03125 100.027344 261.941406 100.039063 361.980468 0 62.042969-62.042968 85.582032-147.519531 70.648438-227.96875zm-98.929688 199.6875c-84.398437 84.398438-221.007812 84.410157-305.417968 0-84.398438-84.398437-84.410157-221.007812 0-305.421874 31.863281-31.859376 71.929687-52.542969 115.4375-60.070313-40.027344 34.550781-61.378907 84.132813-61.378907 134.128906 0 97.765625 79.539063 177.304688 177.304688 177.304688 49.964843 0 99.554687-21.328125 134.125-61.378907-7.523438 43.503907-28.207031 83.574219-60.070313 115.4375zm0 0"/></svg>