<svg height="512" viewBox="0 0 16 16" width="512" xmlns="http://www.w3.org/2000/svg"><path d="m7.4939 9.17139v-3.17139c0-2.08728-1.28815-3.87543-3.10931-4.62311-.263489-.796814-1.00653-1.37689-1.89069-1.37689-.884155 0-1.6272.580078-1.89069 1.37689-.209168.0858765-.409241.188904-.603211.301086l7.49402 7.49402s-.0001221-.0004273-.0001221-.0006104z" transform="translate(5.506 1)"/><path d="m16 14.5859-14.5859-14.5859-1.41406 1.41406 3.4873 3.4873c-.303284.639038-.487305 1.34448-.487305 2.09863v3.17188c0 .263184-.106934.520508-.292969.707031l-.706543.706543-.0004882 2.41455h4.27814c.346863.59491.984741 1 1.72186 1 .737122 0 1.375-.40509 1.72186-1h2.86407l2 2 1.41406-1.41406z"/></svg>